<?xml version="1.0" encoding="UTF-8" standalone="no"?>
<!DOCTYPE svg PUBLIC "-//W3C//DTD SVG 1.1//EN" "http://www.w3.org/Graphics/SVG/1.1/DTD/svg11.dtd">
<svg width="100%" height="100%" viewBox="0 0 360 432" version="1.1" xmlns="http://www.w3.org/2000/svg" xmlns:xlink="http://www.w3.org/1999/xlink" xml:space="preserve" xmlns:serif="http://www.serif.com/" style="fill-rule:evenodd;clip-rule:evenodd;stroke-linejoin:round;stroke-miterlimit:2;">
    <g id="base" transform="matrix(0.359719,0,0,0.273416,-139.117,-235.796)">
        <rect x="386.738" y="862.409" width="1000.78" height="1580.01" style="fill:rgb(247,113,113);"/>
    </g>
    <g transform="matrix(6.6346e-18,0.108351,-0.286649,1.75522e-17,582.649,-280.617)">
        <path d="M4470.31,1753.78C4471.29,1843 4439.83,1858.2 4197.34,1856.75L3034.55,1856.75C2762.76,1855.71 2772.59,1860.99 2761.58,1753.57L2761.58,1055.69C2760.2,943.069 2740.73,951.47 3034.55,952.511L4197.34,952.511C4459.49,955.633 4466.18,932.142 4470.31,1055.69L4466.47,1555.35C4652.93,1556.3 4698.43,1589.3 4698.43,1660C4698.43,1730.7 4656.76,1752.83 4470.31,1753.78Z" style="fill:rgb(51,51,51);"/>
    </g>
    <g transform="matrix(5.75456e-18,-0.0939791,0.102824,6.29617e-18,-96.2206,631.313)">
        <rect x="2471.97" y="1460.95" width="1596.1" height="875.28" style="fill:rgb(51,51,51);"/>
    </g>
    <g transform="matrix(5.75456e-18,-0.0939791,0.102824,6.29617e-18,65.7794,631.313)">
        <rect x="2471.97" y="1460.95" width="1596.1" height="875.28" style="fill:rgb(51,51,51);"/>
    </g>
    <g transform="matrix(4.62853e-18,-0.0755897,0.114938,7.03791e-18,-44.8767,495.7)">
        <rect x="2610.34" y="1721.6" width="952.511" height="469.82" style="fill:rgb(51,51,51);"/>
    </g>
    <g transform="matrix(4.62853e-18,-0.0755897,0.114938,7.03791e-18,-44.8767,579.017)">
        <rect x="2610.34" y="1721.6" width="952.511" height="469.82" style="fill:rgb(51,51,51);"/>
    </g>
</svg>
